<svg width="30" height="30" viewBox="0 0 30 30" fill="none" xmlns="http://www.w3.org/2000/svg">
<g id="icon" clip-path="url(#clip0_385_2318)">
<rect id="Rectangle 20" x="0.282227" y="12.3936" width="17.0738" height="17.0738" fill="#7595FD"/>
<path id="Vector" d="M22.2345 19.7108H19.7954V18.4913H10.039V19.7108H7.59989V18.4913H2.72168V24.589H27.1128V18.4913H22.2345V19.7108ZM24.6736 9.95439H21.015V7.51528C21.015 6.17377 19.9174 5.07617 18.5759 5.07617H11.2586C9.91705 5.07617 8.81945 6.17377 8.81945 7.51528V9.95439H5.16079C3.81928 9.95439 2.72168 11.052 2.72168 12.3935V17.2717H7.59989V14.8326H10.039V17.2717H19.7954V14.8326H22.2345V17.2717H27.1128V12.3935C27.1128 11.052 26.0152 9.95439 24.6736 9.95439ZM18.5759 9.95439H11.2586V7.51528H18.5759V9.95439Z" fill="white"/>
</g>
<defs>
<clipPath id="clip0_385_2318">
<rect width="29.2693" height="29.2693" fill="white" transform="translate(0.282227 0.198242)"/>
</clipPath>
</defs>
</svg>
