<svg width="30" height="30" viewBox="0 0 30 30" fill="none" xmlns="http://www.w3.org/2000/svg">
<g id="icon" clip-path="url(#clip0_385_2330)">
<rect id="Rectangle 20" x="0.44873" y="12.3936" width="17.0738" height="17.0738" fill="#7595FD"/>
<path id="Vector" d="M24.2301 3.85725C23.4216 3.8579 22.6465 4.17932 22.0749 4.75096C21.5033 5.3226 21.1818 6.09772 21.1812 6.90613C21.1812 7.34152 21.2763 7.75494 21.4422 8.13179L19.0579 10.8136C18.248 10.2545 17.2871 9.95507 16.303 9.95502C15.4005 9.95502 14.5663 10.2184 13.8407 10.6453L11.0674 7.87324L11.0394 7.90129C11.2784 7.41591 11.4247 6.87565 11.4247 6.29636C11.4247 5.57274 11.2102 4.86538 10.8081 4.26371C10.4061 3.66205 9.83473 3.19311 9.16619 2.9162C8.49766 2.63928 7.76203 2.56683 7.05232 2.708C6.3426 2.84917 5.69069 3.19762 5.17902 3.70929C4.66735 4.22097 4.31889 4.87288 4.17772 5.58259C4.03655 6.2923 4.10901 7.02793 4.38592 7.69647C4.66284 8.365 5.13178 8.9364 5.73344 9.33842C6.33511 9.74044 7.04247 9.95502 7.76608 9.95502C8.34537 9.95502 8.88442 9.80867 9.37102 9.56964L9.34297 9.59769L12.1162 12.3697C11.6682 13.1137 11.4293 13.9648 11.4247 14.8332C11.4247 16.0491 11.8882 17.1492 12.626 18.0053L9.48322 21.1469C9.13097 21.0059 8.75527 20.9326 8.37586 20.931C6.69532 20.931 5.32698 22.2981 5.32698 23.9799C5.32698 25.6616 6.69532 27.0288 8.37586 27.0288C10.0564 27.0288 11.4247 25.6616 11.4247 23.9799C11.4247 23.5884 11.3443 23.2164 11.2089 22.8713L14.67 19.4102C15.1834 19.5932 15.7273 19.7114 16.303 19.7114C18.9933 19.7114 21.1812 17.5236 21.1812 14.8332C21.1812 14.0576 20.9824 13.3344 20.6592 12.6819L23.241 9.77574C23.5532 9.88307 23.8825 9.95502 24.2301 9.95502C25.9118 9.95502 27.2789 8.5879 27.2789 6.90613C27.2789 5.22437 25.9118 3.85725 24.2301 3.85725ZM16.303 17.2723C14.9578 17.2723 13.8639 16.1784 13.8639 14.8332C13.8639 13.4881 14.9578 12.3941 16.303 12.3941C17.6481 12.3941 18.7421 13.4881 18.7421 14.8332C18.7421 16.1784 17.6481 17.2723 16.303 17.2723Z" fill="white"/>
</g>
<defs>
<clipPath id="clip0_385_2330">
<rect width="29.2693" height="29.2693" fill="white" transform="translate(0.44873 0.198242)"/>
</clipPath>
</defs>
</svg>
