<svg width="30" height="30" viewBox="0 0 30 30" fill="none" xmlns="http://www.w3.org/2000/svg">
<g id="icon" clip-path="url(#clip0_385_2344)">
<rect id="Rectangle 20" x="0.282227" y="12.8369" width="17.0738" height="17.0738" fill="#7595FD"/>
<path id="Vector" d="M13.6976 7.959H17.3563L21.3686 3.93447C21.482 3.82017 21.6169 3.72944 21.7655 3.66752C21.9141 3.60561 22.0735 3.57373 22.2345 3.57373C22.3955 3.57373 22.5549 3.60561 22.7035 3.66752C22.8521 3.72944 22.987 3.82017 23.1004 3.93447L26.2469 7.09312C26.474 7.32161 26.6015 7.63071 26.6015 7.9529C26.6015 8.27509 26.474 8.58419 26.2469 8.81269L23.4541 11.6177H13.6976V14.0568C13.6976 14.3802 13.5692 14.6904 13.3404 14.9191C13.1117 15.1478 12.8015 15.2763 12.4781 15.2763C12.1546 15.2763 11.8444 15.1478 11.6157 14.9191C11.387 14.6904 11.2585 14.3802 11.2585 14.0568V10.3981C11.2585 9.75121 11.5155 9.13082 11.9729 8.6734C12.4304 8.21598 13.0508 7.959 13.6976 7.959ZM6.38033 14.0568V18.935L3.58755 21.7278C3.3604 21.9563 3.23291 22.2654 3.23291 22.5875C3.23291 22.9097 3.3604 23.2188 3.58755 23.4473L6.734 26.606C6.84737 26.7203 6.98225 26.811 7.13087 26.8729C7.27948 26.9348 7.43888 26.9667 7.59988 26.9667C7.76087 26.9667 7.92028 26.9348 8.06889 26.8729C8.2175 26.811 8.35239 26.7203 8.46576 26.606L13.6976 21.3741H18.5759C18.8993 21.3741 19.2095 21.2456 19.4382 21.0169C19.6669 20.7882 19.7954 20.478 19.7954 20.1545V18.935H21.015C21.3384 18.935 21.6486 18.8065 21.8773 18.5778C22.106 18.3491 22.2345 18.0389 22.2345 17.7154V16.4959H23.4541C23.7775 16.4959 24.0877 16.3674 24.3164 16.1387C24.5451 15.91 24.6736 15.5998 24.6736 15.2763V14.0568H16.1368V15.2763C16.1368 15.9232 15.8798 16.5436 15.4224 17.001C14.9649 17.4585 14.3445 17.7154 13.6976 17.7154H11.2585C10.6116 17.7154 9.99125 17.4585 9.53383 17.001C9.07641 16.5436 8.81943 15.9232 8.81943 15.2763V11.6177L6.38033 14.0568Z" fill="#292E3D"/>
</g>
<defs>
<clipPath id="clip0_385_2344">
<rect width="29.2693" height="29.2693" fill="white" transform="translate(0.282227 0.641602)"/>
</clipPath>
</defs>
</svg>
