<svg width="30" height="30" viewBox="0 0 30 30" fill="none" xmlns="http://www.w3.org/2000/svg">
<g id="icon" clip-path="url(#clip0_385_2312)">
<rect id="Rectangle 20" x="0.44873" y="12.8369" width="17.0738" height="17.0738" fill="#7595FD"/>
<path id="Vector" d="M8.20508 23.5448L8.50997 26.2523L10.4856 24.3741L13.8638 15.1055C13.0345 14.8982 12.3028 14.4836 11.7052 13.9104L8.20508 23.5448ZM18.4615 13.9104C17.8639 14.4836 17.12 14.8982 16.3029 15.1055L19.6811 24.3741L21.6568 26.2523L21.9738 23.5448L18.4615 13.9104ZM18.6688 11.1298C19.0347 9.22729 17.9371 7.54431 16.3029 6.95892V5.51985C16.3029 4.84909 15.7541 4.30029 15.0834 4.30029C14.4126 4.30029 13.8638 4.84909 13.8638 5.51985V6.95892C12.4491 7.47113 11.4247 8.81264 11.4247 10.3981C11.4247 12.642 13.4492 14.4226 15.7663 13.9957C17.2054 13.7274 18.3884 12.5689 18.6688 11.1298ZM15.0834 11.6176C14.4126 11.6176 13.8638 11.0688 13.8638 10.3981C13.8638 9.72731 14.4126 9.17851 15.0834 9.17851C15.7541 9.17851 16.3029 9.72731 16.3029 10.3981C16.3029 11.0688 15.7541 11.6176 15.0834 11.6176Z" fill="#292E3D"/>
</g>
<defs>
<clipPath id="clip0_385_2312">
<rect width="29.2693" height="29.2693" fill="white" transform="translate(0.44873 0.641602)"/>
</clipPath>
</defs>
</svg>
