<svg width="26" height="26" viewBox="0 0 26 26" fill="none" xmlns="http://www.w3.org/2000/svg">
<g id="facebook-color-svgrepo-com 1" clip-path="url(#clip0_421_848)">
<g id="Icons">
<g id="Color-">
<path id="Facebook" fill-rule="evenodd" clip-rule="evenodd" d="M13.8533 25.417H1.87981C1.11754 25.417 0.5 24.7991 0.5 24.0371V1.79679C0.5 1.03462 1.11763 0.416992 1.87981 0.416992H24.1203C24.8823 0.416992 25.5 1.03462 25.5 1.79679V24.0371C25.5 24.7992 24.8822 25.417 24.1203 25.417H17.7496V15.7356H20.9992L21.4858 11.9626H17.7496V9.55379C17.7496 8.46142 18.053 7.717 19.6194 7.717L21.6174 7.71612V4.34152C21.2718 4.29554 20.0858 4.19281 18.706 4.19281C15.8254 4.19281 13.8533 5.95112 13.8533 9.18012V11.9626H10.5954V15.7356H13.8533V25.417Z" fill="#4460A0"/>
</g>
</g>
</g>
<defs>
<clipPath id="clip0_421_848">
<rect width="25" height="25" fill="white" transform="translate(0.5 0.416992)"/>
</clipPath>
</defs>
</svg>
