<svg width="61" height="67" viewBox="0 0 61 67" fill="none" xmlns="http://www.w3.org/2000/svg">
<g id="Group">
<g id="Group_2">
<path id="Vector" d="M30.5644 18.3719C35.2388 18.3719 39.028 14.3526 39.028 9.39446C39.028 4.43634 35.2388 0.416992 30.5644 0.416992C25.8901 0.416992 22.1008 4.43634 22.1008 9.39446C22.1008 14.3526 25.8901 18.3719 30.5644 18.3719Z" fill="#E7B10A"/>
<path id="Vector_2" d="M7.38938 28.295C11.1943 28.295 14.2788 25.0233 14.2788 20.9874C14.2788 16.9514 11.1943 13.6797 7.38938 13.6797C3.58448 13.6797 0.5 16.9514 0.5 20.9874C0.5 25.0233 3.58448 28.295 7.38938 28.295Z" fill="#E7B10A"/>
<path id="Vector_3" d="M26.3292 62.8256C22.0331 60.0785 10.2876 51.7126 4.59496 39.1382C2.26992 34.0034 3.99694 32.423 6.24454 29.676C7.81047 30.1534 9.54163 30.0478 11.1248 29.2411C12.7094 28.4344 13.8695 27.0675 14.4973 25.4732C15.2294 25.4424 15.907 25.3992 16.5437 25.3984C16.4497 26.167 16.4027 27.0044 16.4027 27.924C16.4027 35.4429 18.0529 43.5264 21.3065 51.9502C22.963 56.2373 24.7909 59.9582 26.3333 62.7999C26.3319 62.8072 26.3299 62.8175 26.3292 62.8256Z" fill="#E7B10A"/>
<path id="Vector_4" d="M18.3689 27.9225C18.3689 20.9243 21.0735 20.1484 24.9396 18.373C26.435 19.7847 28.404 20.6442 30.5645 20.6442C32.7249 20.6442 34.6932 19.7854 36.1893 18.373C40.0554 20.1484 42.76 20.925 42.76 27.9225C42.76 45.0605 33.9466 60.9511 30.5645 66.4174C27.183 60.9511 18.3689 45.0612 18.3689 27.9225Z" fill="#E7B10A"/>
<path id="Vector_5" d="M56.5333 39.1374C50.8413 51.7126 39.0959 60.0778 34.7991 62.8248C34.7984 62.8153 34.797 62.8065 34.7949 62.797C36.336 59.9553 38.1653 56.2344 39.8218 51.9473C43.076 43.5235 44.7256 35.44 44.7256 27.9211C44.7256 27.0015 44.6779 26.164 44.5846 25.3955C45.2213 25.3955 45.8981 25.4395 46.631 25.4703C47.2587 27.0653 48.4188 28.4315 50.0034 29.2382C51.588 30.0448 53.3178 30.1504 54.8837 29.673C57.1313 32.4223 58.8583 34.0034 56.5333 39.1374Z" fill="#E7B10A"/>
<path id="Vector_6" d="M53.7395 28.295C57.5444 28.295 60.6289 25.0233 60.6289 20.9874C60.6289 16.9514 57.5444 13.6797 53.7395 13.6797C49.9346 13.6797 46.8501 16.9514 46.8501 20.9874C46.8501 25.0233 49.9346 28.295 53.7395 28.295Z" fill="#E7B10A"/>
</g>
</g>
</svg>
