<svg width="34" height="34" viewBox="0 0 34 34" fill="none" xmlns="http://www.w3.org/2000/svg">
<g id="Icon">
<g id="Group 2">
<path id="Vector" d="M20.0846 16.9842C19.917 16.9842 19.7613 16.9381 19.6231 16.864V16.8659C19.6231 17.1296 19.5206 17.3773 19.3346 17.5627C19.1487 17.7487 18.9012 17.8512 18.6378 17.8512C18.4678 17.8512 18.3102 17.804 18.1704 17.7279C18.1563 17.9691 18.0599 18.1946 17.8879 18.3668C17.7019 18.5528 17.4545 18.6553 17.1909 18.6553C16.6672 18.6553 16.242 18.2437 16.2114 17.7277C16.0493 17.8153 15.8662 17.8612 15.6772 17.8491C15.1621 17.8153 14.7587 17.3702 14.7587 16.8356V12.404L14.2541 13.2782C14.0619 13.6126 13.7021 13.8202 13.3147 13.8202C13.126 13.8202 12.9395 13.7707 12.7744 13.676C12.5687 13.5568 12.4216 13.3654 12.3605 13.1365C12.299 12.9074 12.3308 12.6678 12.4497 12.4625C12.4498 12.4625 14.1007 9.60356 14.2015 9.42795C14.2134 9.40154 14.2475 9.32496 14.2766 9.25969C14.3043 9.19737 14.3281 9.13342 14.3509 9.06913C14.8487 7.66357 16.0815 6.79047 17.5682 6.79047C19.4989 6.79047 21.0696 8.49368 21.0696 10.5872L21.0698 15.9987C21.0698 16.2621 20.9675 16.5096 20.7817 16.6957C20.5957 16.8817 20.3482 16.9842 20.0845 16.9842L20.0846 16.9842ZM17.5683 7.31401C16.2907 7.31401 15.2725 8.0356 14.8443 9.24422C14.8169 9.32097 14.7884 9.39772 14.7551 9.4725C14.6585 9.68914 14.6585 9.68914 14.6313 9.72029L14.6277 9.71718C14.4929 9.97153 14.0924 10.665 12.903 12.7245C12.8541 12.8089 12.8412 12.907 12.8661 13.0008C12.8913 13.0946 12.9519 13.1737 13.0357 13.222C13.2957 13.3714 13.652 13.275 13.8002 13.0167L14.7938 11.2964C14.8532 11.1939 14.9732 11.1436 15.0884 11.1747C15.2028 11.2054 15.2824 11.3092 15.2824 11.4276V16.8357C15.2824 17.0909 15.4749 17.3111 15.7115 17.3267C15.848 17.3339 15.9752 17.2882 16.0708 17.1927C16.1578 17.1058 16.2056 16.99 16.2056 16.8662V13.3292C16.2056 13.1846 16.3229 13.0673 16.4675 13.0673C16.6122 13.0673 16.7294 13.1844 16.7294 13.3292L16.7293 17.6702C16.7293 17.9247 16.9364 18.1318 17.1909 18.1318C17.3146 18.1318 17.4307 18.0839 17.5178 17.997C17.6047 17.9099 17.6526 17.7938 17.6526 17.6702V13.3292C17.6526 13.1846 17.7696 13.0673 17.9144 13.0673C18.0591 13.0673 18.1763 13.1844 18.1763 13.3292L18.1762 16.8255V16.8662C18.1762 17.1206 18.3833 17.3277 18.638 17.3277C18.7615 17.3277 18.8772 17.2796 18.9648 17.1924C19.0517 17.1056 19.0996 16.9899 19.0996 16.866V13.3291C19.0996 13.1844 19.2167 13.0672 19.3615 13.0672C19.5062 13.0672 19.6234 13.1842 19.6234 13.3291L19.6231 15.9989C19.6231 16.2535 19.8302 16.4607 20.0846 16.4607C20.2084 16.4607 20.3241 16.4126 20.4111 16.3259C20.4983 16.2386 20.546 16.1225 20.546 15.9989L20.5462 10.5874C20.5462 8.78264 19.2103 7.31407 17.5682 7.31407L17.5683 7.31401Z" fill="#20166D"/>
<path id="Vector_2" d="M9.79489 20.7456L13.5952 18.4657C14.0534 18.1906 14.643 18.3075 14.9369 18.7321C15.0441 18.8867 15.0989 19.0669 15.1074 19.2505C15.2491 19.1765 15.4032 19.1363 15.5602 19.1363C15.6405 19.1363 15.7212 19.1463 15.8009 19.1662C16.0563 19.23 16.2714 19.3895 16.4067 19.6152C16.5422 19.8411 16.5817 20.106 16.5179 20.361C16.459 20.597 16.3155 20.7956 16.116 20.9319C16.2555 21.0142 16.3759 21.1265 16.4615 21.2696C16.597 21.4955 16.6365 21.7602 16.5728 22.0156C16.5091 22.2706 16.3495 22.4857 16.1235 22.6214L16.1222 22.6222C16.2593 22.7044 16.3775 22.8155 16.4622 22.9564C16.5978 23.1824 16.6373 23.4472 16.5735 23.7026C16.5096 23.9577 16.35 24.1729 16.1243 24.3084L11.4841 27.0921C10.618 27.6115 9.61683 27.7908 8.66534 27.5964C7.70534 27.4003 6.91028 26.8485 6.42686 26.0426C5.66182 24.7676 5.77647 23.2611 6.72549 22.1114C6.76895 22.0589 6.81175 22.0054 6.85062 21.95C6.89178 21.8914 6.93983 21.8226 6.95623 21.7989C7.05446 21.6235 8.65734 18.7356 8.65718 18.7359C8.81904 18.4438 9.12242 18.2785 9.43531 18.2787C9.58127 18.2787 9.72935 18.3146 9.86596 18.3903C10.0309 18.4825 10.1695 18.6168 10.2664 18.7787C10.4657 19.1108 10.4727 19.5263 10.2851 19.8627L9.79489 20.7456ZM9.81768 19.0479C9.76685 18.9631 9.69698 18.8956 9.61154 18.8477C9.43492 18.7499 9.21255 18.8136 9.11531 18.9895C7.96836 21.0558 7.57738 21.76 7.4265 22.0106L7.42994 22.0114C7.41732 22.0534 7.41732 22.0534 7.27924 22.2507C7.23233 22.3174 7.18133 22.3815 7.12935 22.4447C6.3133 23.4334 6.21855 24.6776 6.87565 25.7732C7.28268 26.4518 7.95539 26.9171 8.76992 27.0834C9.59332 27.2508 10.4612 27.095 11.2144 26.6431L15.8551 23.8591C15.9611 23.7957 16.0358 23.6948 16.0657 23.5753C16.0955 23.4559 16.077 23.3317 16.0134 23.2258C15.8825 23.0077 15.5983 22.936 15.3802 23.0674L13.0909 24.4408C12.9669 24.5153 12.8058 24.4753 12.7316 24.3511C12.6571 24.2272 12.6973 24.0663 12.8213 23.9918L15.1108 22.6184L15.8543 22.1723C15.9602 22.1087 16.0352 22.0078 16.065 21.8886C16.0949 21.7691 16.0763 21.6448 16.0127 21.539C15.8817 21.3207 15.5975 21.2497 15.3795 21.3806L12.3465 23.2001C12.2222 23.2747 12.0616 23.2343 11.9872 23.1104C11.9127 22.9864 11.9531 22.8255 12.0769 22.7511L15.7994 20.518C15.9053 20.4544 15.9801 20.3537 16.0099 20.2341C16.0398 20.1147 16.0212 19.9906 15.9578 19.8847C15.8943 19.7789 15.7935 19.7041 15.6739 19.6743C15.5537 19.6444 15.4301 19.6629 15.3244 19.7262L14.6353 20.1397C14.6352 20.1397 14.6352 20.1398 14.635 20.1398H14.6349L11.602 21.9593C11.4777 22.0341 11.317 21.9938 11.2427 21.8696C11.1682 21.7457 11.2086 21.5848 11.3324 21.5103L14.3654 19.6908C14.4714 19.6272 14.5463 19.5263 14.5761 19.4071C14.6089 19.2762 14.584 19.1424 14.5063 19.0303C14.3715 18.8353 14.0832 18.7834 13.8646 18.9148L9.22725 21.6968C9.12574 21.7575 8.99569 21.7427 8.91058 21.6605C8.82531 21.5782 8.80612 21.4488 8.86351 21.3454L9.8278 19.608C9.92456 19.4343 9.92078 19.2198 9.81763 19.048L9.81768 19.0479Z" fill="#20166D"/>
<path id="Vector_3" d="M27.9546 26.0422C27.4713 26.8483 26.6764 27.3999 25.7163 27.5961C24.7646 27.7901 23.7638 27.6112 22.8975 27.0918L18.2568 24.3079C18.031 24.1724 17.8713 23.9573 17.8073 23.7017C17.7439 23.4467 17.7836 23.1819 17.9189 22.9562C18.0033 22.8152 18.1217 22.704 18.259 22.6218L18.2577 22.621C18.0318 22.4856 17.8721 22.2704 17.8085 22.0152C17.7445 21.7601 17.7842 21.495 17.9197 21.2691C18.0069 21.1239 18.1265 21.0105 18.2629 20.9299C18.0648 20.7937 17.9221 20.5957 17.8634 20.3609C17.7995 20.1055 17.8392 19.8407 17.9746 19.615C18.1099 19.3892 18.3252 19.2296 18.5804 19.1659C18.6601 19.1459 18.741 19.136 18.821 19.136C18.9781 19.1362 19.1323 19.176 19.2739 19.2502C19.2826 19.0666 19.3372 18.8864 19.4445 18.7318C19.7385 18.3075 20.3276 18.1901 20.7865 18.4654L24.5867 20.7449L24.0968 19.8626C23.9089 19.5258 23.9158 19.1102 24.115 18.778C24.2121 18.6163 24.3508 18.482 24.5166 18.389C24.6529 18.3136 24.8005 18.2778 24.9461 18.2778C25.2589 18.278 25.5626 18.443 25.7243 18.735C26.2877 19.7503 27.3511 21.6651 27.4258 21.7988C27.4417 21.8219 27.4898 21.8908 27.531 21.9493C27.5701 22.0049 27.6125 22.058 27.6562 22.1108C28.6051 23.2611 28.7196 24.7673 27.9545 26.0423L27.9546 26.0422ZM27.2522 22.4446C27.2001 22.3815 27.1489 22.317 27.1023 22.2506C26.9606 22.0495 26.957 22.0443 26.9464 21.9916C26.7807 21.7176 26.3767 20.9902 25.266 18.9891C25.1685 18.8134 24.9472 18.7493 24.7709 18.8467C24.6841 18.8953 24.6144 18.963 24.5636 19.0478C24.4606 19.2195 24.4566 19.434 24.5539 19.6082L25.5178 21.345C25.5754 21.4487 25.5562 21.5779 25.4711 21.6602C25.3862 21.7427 25.2563 21.7571 25.1543 21.6965L20.5169 18.9145C20.2983 18.7834 20.0102 18.8348 19.8751 19.0299C19.7973 19.1421 19.7726 19.2759 19.805 19.4066C19.8349 19.526 19.9098 19.6267 20.0159 19.6903C20.0163 19.6905 20.0164 19.6908 20.0168 19.691L23.0488 21.51C23.1728 21.5844 23.213 21.7451 23.1385 21.8693C23.0641 21.9931 22.9035 22.0336 22.7792 21.959L19.0568 19.7259C18.9511 19.6626 18.8268 19.6439 18.7075 19.6739C18.5877 19.7038 18.487 19.7786 18.4236 19.8847C18.36 19.9904 18.3416 20.1146 18.3711 20.234C18.401 20.3533 18.4759 20.4542 18.5818 20.5178L19.3062 20.9523L22.3041 22.7509C22.4281 22.8254 22.4683 22.9861 22.3938 23.1102C22.3194 23.2341 22.1588 23.2744 22.0345 23.2L19.0018 21.3804C18.7837 21.2493 18.4997 21.3204 18.3685 21.5389C18.3049 21.6448 18.2865 21.7689 18.316 21.8883C18.3459 22.0077 18.4208 22.1084 18.5269 22.1722L19.2704 22.6183L21.5596 23.9917C21.6836 24.0662 21.7238 24.2269 21.6493 24.351C21.5749 24.4748 21.4143 24.5155 21.29 24.4407L19.0008 23.0673C18.8952 23.004 18.7714 22.9853 18.6514 23.0153C18.532 23.0451 18.431 23.1199 18.3675 23.2257C18.304 23.3316 18.2855 23.4559 18.315 23.5752C18.3449 23.6945 18.4198 23.7952 18.5259 23.859L23.1666 26.6429C23.9197 27.0948 24.7882 27.2512 25.6111 27.0832C26.4255 26.917 27.0982 26.4517 27.5052 25.7731C28.163 24.6773 28.0684 23.4329 27.2525 22.4446L27.2522 22.4446Z" fill="#20166D"/>
</g>
</g>
</svg>
