<svg width="34" height="34" viewBox="0 0 34 34" fill="none" xmlns="http://www.w3.org/2000/svg">
<g id="Icon">
<path id="Vector" d="M17.0764 7.29199C14.5905 7.29199 12.5669 9.33418 12.5669 11.8306C12.5669 13.4099 13.3778 14.8043 14.6024 15.6171C13.1233 16.1116 11.8435 17.0359 10.9049 18.2451C10.3859 17.8459 9.80603 17.5249 9.18091 17.2949C10.1289 16.5911 10.7483 15.4606 10.7483 14.19C10.7483 12.0728 9.03594 10.3395 6.93151 10.3395C4.82707 10.3395 3.11468 12.0728 3.11468 14.19C3.11468 15.4613 3.73467 16.5924 4.68342 17.2961C2.1716 18.223 0.377686 20.6497 0.377686 23.5057V25.5119C0.377943 25.6648 0.439118 25.8114 0.547588 25.9191C0.656057 26.027 0.80283 26.0872 0.955769 26.0867H9.75754C9.77888 26.089 9.80021 26.0903 9.82155 26.09H24.3317C24.353 26.0903 24.3746 26.089 24.3957 26.0867H33.1981C33.5146 26.0854 33.7708 25.8286 33.7716 25.5119V23.5057C33.7716 20.6497 31.9808 18.223 29.4703 17.2958C30.419 16.5924 31.039 15.4611 31.039 14.1898C31.039 12.0725 29.3266 10.3392 27.2222 10.3392C25.1178 10.3392 23.4054 12.0725 23.4054 14.1898C23.4054 15.4603 24.0251 16.591 24.9731 17.2946C24.3466 17.5252 23.7665 17.8472 23.2468 18.2474C22.3086 17.0375 21.0305 16.1119 19.5516 15.6171C20.7758 14.8043 21.5871 13.4099 21.5871 11.8306C21.5871 9.33418 19.5624 7.29199 17.0765 7.29199H17.0764ZM17.0764 8.44354C18.9356 8.44354 20.4344 9.9524 20.4344 11.8306C20.4344 13.6941 18.9589 15.1883 17.1203 15.2123C17.1057 15.2123 17.0913 15.2102 17.0764 15.2102C17.0615 15.2102 17.0473 15.2123 17.0324 15.2123C15.1938 15.1886 13.7194 13.6942 13.7194 11.8306C13.7194 9.95213 15.2169 8.44354 17.0761 8.44354H17.0764ZM6.93157 11.491C8.40674 11.491 9.59685 12.6883 9.59685 14.19C9.59685 15.6816 8.42213 16.8737 6.96085 16.8899C6.95109 16.8899 6.94158 16.8889 6.93155 16.8889C6.92178 16.8889 6.91227 16.8899 6.90225 16.8899C5.44097 16.8737 4.26626 15.6813 4.26626 14.19C4.26626 12.6883 5.45637 11.491 6.93153 11.491H6.93157ZM27.2218 11.491C28.697 11.491 29.8871 12.6883 29.8871 14.19C29.8871 15.6816 28.7124 16.8737 27.2511 16.8899C27.2414 16.8899 27.2318 16.8889 27.2218 16.8889C27.2121 16.8889 27.2025 16.8899 27.1925 16.8899C25.7312 16.8737 24.5565 15.6813 24.5565 14.19C24.5565 12.6883 25.7466 11.491 27.2218 11.491H27.2218ZM17.0323 16.3638C17.0469 16.364 17.0613 16.3658 17.0762 16.3658C17.0909 16.3658 17.1053 16.3638 17.1202 16.3638C20.8075 16.3874 23.7584 19.3637 23.7584 23.0894L23.7581 24.9381H10.3949V23.0894C10.3949 19.3634 13.345 16.3874 17.0318 16.3638H17.0323ZM6.88748 18.0428C6.90214 18.043 6.91653 18.0448 6.93144 18.0448C6.94635 18.0448 6.96048 18.0428 6.97539 18.0428C8.22255 18.0528 9.36074 18.4828 10.267 19.2023C9.61852 20.3498 9.24348 21.6742 9.24348 23.0898V24.934H1.52877V23.5057C1.52877 20.4777 3.90951 18.0664 6.88735 18.0425L6.88748 18.0428ZM27.1778 18.0428C27.1927 18.043 27.2068 18.0448 27.2217 18.0448C27.2366 18.0448 27.2508 18.0428 27.2657 18.0428C30.2435 18.0664 32.6242 20.478 32.6242 23.5059V24.934H24.9056L24.9053 23.0898C24.9053 21.675 24.5313 20.3515 23.8841 19.2043C24.7906 18.4839 25.9296 18.0528 27.1778 18.0428H27.1778Z" fill="#20166D"/>
</g>
</svg>
