<svg width="34" height="34" viewBox="0 0 34 34" fill="none" xmlns="http://www.w3.org/2000/svg">
<g id="Icon">
<g id="Group 2">
<path id="Vector" d="M20.0846 16.7893C19.917 16.7893 19.7613 16.7433 19.6231 16.6691V16.6711C19.6231 16.9348 19.5206 17.1824 19.3346 17.3679C19.1487 17.5539 18.9012 17.6564 18.6378 17.6564C18.4678 17.6564 18.3102 17.6092 18.1704 17.5331C18.1563 17.7743 18.0599 17.9998 17.8879 18.172C17.7019 18.358 17.4545 18.4604 17.1909 18.4604C16.6672 18.4604 16.242 18.0488 16.2114 17.5329C16.0493 17.6205 15.8662 17.6664 15.6772 17.6543C15.1621 17.6205 14.7587 17.1754 14.7587 16.6408V12.2091L14.2541 13.0834C14.0619 13.4177 13.7021 13.6254 13.3147 13.6254C13.126 13.6254 12.9395 13.5758 12.7744 13.4812C12.5687 13.362 12.4216 13.1706 12.3605 12.9417C12.299 12.7126 12.3308 12.473 12.4497 12.2676C12.4498 12.2676 14.1007 9.40873 14.2015 9.23312C14.2134 9.20672 14.2475 9.13014 14.2766 9.06487C14.3043 9.00255 14.3281 8.93859 14.3509 8.87431C14.8487 7.46875 16.0815 6.59565 17.5682 6.59565C19.4989 6.59565 21.0696 8.29886 21.0696 10.3924L21.0698 15.8039C21.0698 16.0673 20.9675 16.3147 20.7817 16.5009C20.5957 16.6869 20.3482 16.7894 20.0845 16.7894L20.0846 16.7893ZM17.5683 7.11919C16.2907 7.11919 15.2725 7.84078 14.8443 9.0494C14.8169 9.12615 14.7884 9.20289 14.7551 9.27768C14.6585 9.49431 14.6585 9.49431 14.6313 9.52547L14.6277 9.52235C14.4929 9.7767 14.0924 10.4702 12.903 12.5297C12.8541 12.6141 12.8412 12.7122 12.8661 12.806C12.8913 12.8998 12.9519 12.9788 13.0357 13.0272C13.2957 13.1766 13.652 13.0802 13.8002 12.8219L14.7938 11.1016C14.8532 10.9991 14.9732 10.9487 15.0884 10.9799C15.2028 11.0106 15.2824 11.1144 15.2824 11.2328V16.6409C15.2824 16.8961 15.4749 17.1163 15.7115 17.1319C15.848 17.1391 15.9752 17.0934 16.0708 16.9979C16.1578 16.911 16.2056 16.7952 16.2056 16.6714V13.1344C16.2056 12.9898 16.3229 12.8725 16.4675 12.8725C16.6122 12.8725 16.7294 12.9896 16.7294 13.1344L16.7293 17.4754C16.7293 17.7299 16.9364 17.937 17.1909 17.937C17.3146 17.937 17.4307 17.8891 17.5178 17.8022C17.6047 17.7151 17.6526 17.599 17.6526 17.4754V13.1344C17.6526 12.9898 17.7696 12.8725 17.9144 12.8725C18.0591 12.8725 18.1763 12.9896 18.1763 13.1344L18.1762 16.6307V16.6714C18.1762 16.9257 18.3833 17.1329 18.638 17.1329C18.7615 17.1329 18.8772 17.0848 18.9648 16.9976C19.0517 16.9108 19.0996 16.795 19.0996 16.6712V13.1342C19.0996 12.9896 19.2167 12.8723 19.3615 12.8723C19.5062 12.8723 19.6234 12.9894 19.6234 13.1342L19.6231 15.804C19.6231 16.0587 19.8302 16.2658 20.0846 16.2658C20.2084 16.2658 20.3241 16.2178 20.4111 16.131C20.4983 16.0438 20.546 15.9277 20.546 15.804L20.5462 10.3925C20.5462 8.58782 19.2103 7.11924 17.5682 7.11924L17.5683 7.11919Z" fill="#20166D"/>
<path id="Vector_2" d="M9.79489 20.5508L13.5952 18.2709C14.0534 17.9957 14.643 18.1127 14.9369 18.5372C15.0441 18.6919 15.0989 18.8721 15.1074 19.0556C15.2491 18.9817 15.4032 18.9415 15.5602 18.9415C15.6405 18.9415 15.7212 18.9515 15.8009 18.9713C16.0563 19.0351 16.2714 19.1947 16.4067 19.4203C16.5422 19.6463 16.5817 19.9112 16.5179 20.1662C16.459 20.4022 16.3155 20.6008 16.116 20.7371C16.2555 20.8194 16.3759 20.9317 16.4615 21.0747C16.597 21.3007 16.6365 21.5654 16.5728 21.8207C16.5091 22.0758 16.3495 22.2909 16.1235 22.4265L16.1222 22.4274C16.2593 22.5095 16.3775 22.6207 16.4622 22.7616C16.5978 22.9876 16.6373 23.2524 16.5735 23.5077C16.5096 23.7629 16.35 23.9781 16.1243 24.1135L11.4841 26.8973C10.618 27.4167 9.61683 27.5959 8.66534 27.4016C7.70534 27.2055 6.91028 26.6537 6.42686 25.8478C5.66182 24.5727 5.77647 23.0663 6.72549 21.9165C6.76895 21.8641 6.81175 21.8106 6.85062 21.7552C6.89178 21.6966 6.93983 21.6277 6.95623 21.6041C7.05446 21.4286 8.65734 18.5407 8.65718 18.5411C8.81904 18.249 9.12242 18.0837 9.43531 18.0838C9.58127 18.0838 9.72935 18.1198 9.86596 18.1955C10.0309 18.2877 10.1695 18.422 10.2664 18.5839C10.4657 18.9159 10.4727 19.3315 10.2851 19.6678L9.79489 20.5508ZM9.81768 18.8531C9.76685 18.7683 9.69698 18.7007 9.61154 18.6528C9.43492 18.5551 9.21255 18.6187 9.11531 18.7947C7.96836 20.861 7.57738 21.5652 7.4265 21.8158L7.42994 21.8166C7.41732 21.8586 7.41732 21.8586 7.27924 22.0559C7.23233 22.1226 7.18133 22.1867 7.12935 22.2499C6.3133 23.2386 6.21855 24.4828 6.87565 25.5784C7.28268 26.257 7.95539 26.7223 8.76992 26.8885C9.59332 27.056 10.4612 26.9002 11.2144 26.4482L15.8551 23.6643C15.9611 23.6009 16.0358 23.5 16.0657 23.3804C16.0955 23.2611 16.077 23.1369 16.0134 23.031C15.8825 22.8129 15.5983 22.7412 15.3802 22.8726L13.0909 24.246C12.9669 24.3205 12.8058 24.2804 12.7316 24.1563C12.6571 24.0323 12.6973 23.8715 12.8213 23.797L15.1108 22.4236L15.8543 21.9775C15.9602 21.9139 16.0352 21.813 16.065 21.6938C16.0949 21.5742 16.0763 21.4499 16.0127 21.3442C15.8817 21.1259 15.5975 21.0549 15.3795 21.1857L12.3465 23.0052C12.2222 23.0799 12.0616 23.0395 11.9872 22.9155C11.9127 22.7916 11.9531 22.6307 12.0769 22.5562L15.7994 20.3232C15.9053 20.2595 15.9801 20.1588 16.0099 20.0393C16.0398 19.9199 16.0212 19.7958 15.9578 19.6898C15.8943 19.5841 15.7935 19.5093 15.6739 19.4794C15.5537 19.4496 15.4301 19.4681 15.3244 19.5314L14.6353 19.9448C14.6352 19.9448 14.6352 19.945 14.635 19.945H14.6349L11.602 21.7645C11.4777 21.8393 11.317 21.7989 11.2427 21.6748C11.1682 21.5508 11.2086 21.3899 11.3324 21.3155L14.3654 19.496C14.4714 19.4324 14.5463 19.3315 14.5761 19.2123C14.6089 19.0814 14.584 18.9476 14.5063 18.8354C14.3715 18.6404 14.0832 18.5886 13.8646 18.72L9.22725 21.502C9.12574 21.5626 8.99569 21.5479 8.91058 21.4657C8.82531 21.3834 8.80612 21.254 8.86351 21.1505L9.8278 19.4132C9.92456 19.2395 9.92078 19.025 9.81763 18.8531L9.81768 18.8531Z" fill="#20166D"/>
<path id="Vector_3" d="M27.9546 25.8474C27.4713 26.6534 26.6764 27.2051 25.7163 27.4013C24.7646 27.5953 23.7638 27.4164 22.8975 26.897L18.2568 24.1131C18.031 23.9776 17.8713 23.7624 17.8073 23.5069C17.7439 23.2519 17.7836 22.9871 17.9189 22.7614C18.0033 22.6204 18.1217 22.5092 18.259 22.427L18.2577 22.4262C18.0318 22.2907 17.8721 22.0756 17.8085 21.8204C17.7445 21.5652 17.7842 21.3002 17.9197 21.0743C18.0069 20.9291 18.1265 20.8156 18.2629 20.7351C18.0648 20.5988 17.9221 20.4009 17.8634 20.1661C17.7995 19.9107 17.8392 19.6459 17.9746 19.4202C18.1099 19.1944 18.3252 19.0348 18.5804 18.971C18.6601 18.951 18.741 18.9412 18.821 18.9412C18.9781 18.9414 19.1323 18.9812 19.2739 19.0553C19.2826 18.8718 19.3372 18.6916 19.4445 18.5369C19.7385 18.1127 20.3276 17.9953 20.7865 18.2706L24.5867 20.5501L24.0968 19.6678C23.9089 19.331 23.9158 18.9154 24.115 18.5832C24.2121 18.4215 24.3508 18.2872 24.5166 18.1942C24.6529 18.1187 24.8005 18.083 24.9461 18.083C25.2589 18.0832 25.5626 18.2481 25.7243 18.5402C26.2877 19.5555 27.3511 21.4703 27.4258 21.6039C27.4417 21.6271 27.4898 21.6959 27.531 21.7545C27.5701 21.8101 27.6125 21.8632 27.6562 21.916C28.6051 23.0662 28.7196 24.5725 27.9545 25.8474L27.9546 25.8474ZM27.2522 22.2498C27.2001 22.1866 27.1489 22.1222 27.1023 22.0558C26.9606 21.8547 26.957 21.8495 26.9464 21.7968C26.7807 21.5228 26.3767 20.7953 25.266 18.7943C25.1685 18.6186 24.9472 18.5545 24.7709 18.6519C24.6841 18.7005 24.6144 18.7682 24.5636 18.853C24.4606 19.0247 24.4566 19.2392 24.5539 19.4134L25.5178 21.1502C25.5754 21.2538 25.5562 21.3831 25.4711 21.4654C25.3862 21.5479 25.2563 21.5623 25.1543 21.5016L20.5169 18.7196C20.2983 18.5886 20.0102 18.6399 19.8751 18.8351C19.7973 18.9473 19.7726 19.0811 19.805 19.2118C19.8349 19.3312 19.9098 19.4319 20.0159 19.4955C20.0163 19.4957 20.0164 19.496 20.0168 19.4961L23.0488 21.3151C23.1728 21.3896 23.213 21.5503 23.1385 21.6745C23.0641 21.7983 22.9035 21.8388 22.7792 21.7642L19.0568 19.5311C18.9511 19.4678 18.8268 19.4491 18.7075 19.4791C18.5877 19.5089 18.487 19.5837 18.4236 19.6898C18.36 19.7956 18.3416 19.9198 18.3711 20.0391C18.401 20.1585 18.4759 20.2594 18.5818 20.323L19.3062 20.7574L22.3041 22.5561C22.4281 22.6306 22.4683 22.7913 22.3938 22.9154C22.3194 23.0392 22.1588 23.0796 22.0345 23.0051L19.0018 21.1856C18.7837 21.0544 18.4997 21.1256 18.3685 21.344C18.3049 21.45 18.2865 21.5741 18.316 21.6935C18.3459 21.8129 18.4208 21.9136 18.5269 21.9774L19.2704 22.4234L21.5596 23.7969C21.6836 23.8713 21.7238 24.032 21.6493 24.1562C21.5749 24.28 21.4143 24.3207 21.29 24.2459L19.0008 22.8724C18.8952 22.8091 18.7714 22.7905 18.6514 22.8205C18.532 22.8503 18.431 22.9251 18.3675 23.0309C18.304 23.1368 18.2855 23.2611 18.315 23.3803C18.3449 23.4997 18.4198 23.6004 18.5259 23.6642L23.1666 26.4481C23.9197 26.8999 24.7882 27.0564 25.6111 26.8884C26.4255 26.7221 27.0982 26.2569 27.5052 25.5783C28.163 24.4825 28.0684 23.2381 27.2525 22.2497L27.2522 22.2498Z" fill="#20166D"/>
</g>
</g>
</svg>
