<svg width="34" height="34" viewBox="0 0 34 34" fill="none" xmlns="http://www.w3.org/2000/svg">
<g id="Icon">
<g id="Group 1">
<path id="Vector" d="M19.1135 13.5641C18.8963 13.5641 18.7197 13.3878 18.7197 13.1703V12.5012C18.7197 12.284 18.896 12.1074 19.1135 12.1074C19.3307 12.1074 19.5072 12.2837 19.5072 12.5012V13.1703C19.5072 13.3878 19.3307 13.5641 19.1135 13.5641Z" fill="#20166D"/>
<path id="Vector_2" d="M17.458 13.5641C17.2408 13.5641 17.0642 13.3878 17.0642 13.1703V12.5012C17.0642 12.284 17.2405 12.1074 17.458 12.1074C17.6751 12.1074 17.8517 12.2837 17.8517 12.5012V13.1703C17.8514 13.3878 17.6754 13.5641 17.458 13.5641Z" fill="#20166D"/>
<path id="Vector_3" d="M15.8027 13.5641C15.5855 13.5641 15.4089 13.3878 15.4089 13.1703V12.5012C15.4089 12.284 15.5852 12.1074 15.8027 12.1074C16.0199 12.1074 16.1964 12.2837 16.1964 12.5012V13.1703C16.1964 13.3878 16.0202 13.5641 15.8027 13.5641Z" fill="#20166D"/>
<path id="Vector_4" d="M19.1135 16.3001C18.8963 16.3001 18.7197 16.1238 18.7197 15.9064V15.2375C18.7197 15.0203 18.896 14.8438 19.1135 14.8438C19.3307 14.8438 19.5072 15.02 19.5072 15.2375V15.9064C19.5072 16.1238 19.3307 16.3001 19.1135 16.3001Z" fill="#20166D"/>
<path id="Vector_5" d="M17.458 16.3001C17.2408 16.3001 17.0642 16.1238 17.0642 15.9064V15.2375C17.0642 15.0203 17.2405 14.8438 17.458 14.8438C17.6751 14.8438 17.8517 15.02 17.8517 15.2375V15.9064C17.8514 16.1238 17.6754 16.3001 17.458 16.3001Z" fill="#20166D"/>
<path id="Vector_6" d="M15.8027 16.3001C15.5855 16.3001 15.4089 16.1238 15.4089 15.9064V15.2375C15.4089 15.0203 15.5852 14.8438 15.8027 14.8438C16.0199 14.8438 16.1964 15.02 16.1964 15.2375V15.9064C16.1964 16.1238 16.0202 16.3001 15.8027 16.3001Z" fill="#20166D"/>
<path id="Vector_7" d="M19.1135 19.0367C18.8963 19.0367 18.7197 18.8604 18.7197 18.643V17.9738C18.7197 17.7566 18.896 17.5801 19.1135 17.5801C19.3307 17.5801 19.5072 17.7564 19.5072 17.9738V18.643C19.5072 18.8604 19.3307 19.0367 19.1135 19.0367Z" fill="#20166D"/>
<path id="Vector_8" d="M17.458 19.0367C17.2408 19.0367 17.0642 18.8604 17.0642 18.643V17.9738C17.0642 17.7566 17.2405 17.5801 17.458 17.5801C17.6751 17.5801 17.8517 17.7564 17.8517 17.9738V18.643C17.8514 18.8604 17.6754 19.0367 17.458 19.0367Z" fill="#20166D"/>
<path id="Vector_9" d="M15.8027 19.0367C15.5855 19.0367 15.4089 18.8604 15.4089 18.643V17.9738C15.4089 17.7566 15.5852 17.5801 15.8027 17.5801C16.0199 17.5801 16.1964 17.7564 16.1964 17.9738V18.643C16.1964 18.8604 16.0202 19.0367 15.8027 19.0367Z" fill="#20166D"/>
<path id="Vector_10" d="M19.1135 21.7726C18.8963 21.7726 18.7197 21.5963 18.7197 21.3788V20.7097C18.7197 20.4925 18.896 20.3159 19.1135 20.3159C19.3307 20.3159 19.5072 20.4922 19.5072 20.7097V21.3788C19.5072 21.5963 19.3307 21.7726 19.1135 21.7726Z" fill="#20166D"/>
<path id="Vector_11" d="M17.458 21.7726C17.2408 21.7726 17.0642 21.5963 17.0642 21.3788V20.7097C17.0642 20.4925 17.2405 20.3159 17.458 20.3159C17.6751 20.3159 17.8517 20.4922 17.8517 20.7097V21.3788C17.8514 21.5963 17.6754 21.7726 17.458 21.7726Z" fill="#20166D"/>
<path id="Vector_12" d="M15.8027 21.7726C15.5855 21.7726 15.4089 21.5963 15.4089 21.3788V20.7097C15.4089 20.4925 15.5852 20.3159 15.8027 20.3159C16.0199 20.3159 16.1964 20.4922 16.1964 20.7097V21.3788C16.1964 21.5963 16.0202 21.7726 15.8027 21.7726Z" fill="#20166D"/>
<path id="Vector_13" d="M19.1135 24.5091C18.8963 24.5091 18.7197 24.3328 18.7197 24.1154V23.4465C18.7197 23.2293 18.896 23.0527 19.1135 23.0527C19.3307 23.0527 19.5072 23.229 19.5072 23.4465V24.1154C19.5072 24.3325 19.3307 24.5091 19.1135 24.5091Z" fill="#20166D"/>
<path id="Vector_14" d="M17.458 24.5091C17.2408 24.5091 17.0642 24.3328 17.0642 24.1154V23.4465C17.0642 23.2293 17.2405 23.0527 17.458 23.0527C17.6751 23.0527 17.8517 23.229 17.8517 23.4465V24.1154C17.8514 24.3325 17.6754 24.5091 17.458 24.5091Z" fill="#20166D"/>
<path id="Vector_15" d="M15.8027 24.5091C15.5855 24.5091 15.4089 24.3328 15.4089 24.1154L15.4092 23.4465C15.4092 23.2293 15.5855 23.0527 15.803 23.0527C16.0201 23.0527 16.1967 23.229 16.1967 23.4465V24.1154C16.1964 24.3325 16.0202 24.5091 15.8027 24.5091Z" fill="#20166D"/>
<path id="Vector_16" d="M4.55453 27.2322C4.55453 27.4494 4.73081 27.6259 4.94828 27.6259H28.9263C29.1435 27.6259 29.3201 27.4496 29.3201 27.2322C29.3201 27.015 29.1438 26.8384 28.9263 26.8384H28.1984V15.5334C28.1984 15.3162 28.0222 15.1396 27.8047 15.1396L21.376 15.1399V6.98951C21.376 6.85168 21.304 6.72427 21.1865 6.65288C21.0693 6.58121 20.9227 6.57682 20.8007 6.64025L13.4918 10.4456C13.3613 10.5135 13.2801 10.648 13.2801 10.7949V17.9141H6.20658C5.98939 17.9141 5.81284 18.0904 5.81284 18.3078V26.8385H4.9474C4.73021 26.8382 4.5542 27.0145 4.5542 27.232L4.55453 27.2322ZM21.3761 21.1033H27.4113V26.8387L21.3761 26.8385V21.1033ZM21.3761 18.3671H27.4113V20.3161L21.3761 20.3159V18.3671ZM21.3761 15.927H27.4113V17.5802H21.3761V15.927ZM14.0672 11.034L20.5884 7.63854V26.8381H14.0672V11.034ZM8.54677 23.6936C8.54677 22.8765 9.19422 22.2114 9.99021 22.2114C10.7862 22.2114 11.4339 22.8762 11.4339 23.6936V26.8386H8.54677V23.6936ZM6.60031 18.7015H13.28V26.8385H12.2214V23.6935C12.2214 22.4422 11.2209 21.4241 9.99021 21.4241C8.7601 21.4241 7.75957 22.4419 7.75957 23.6935V26.8385H6.60031V18.7015Z" fill="#20166D"/>
</g>
</g>
</svg>
