<svg width="31" height="31" viewBox="0 0 31 31" fill="none" xmlns="http://www.w3.org/2000/svg">
<g id="instagram-1-svgrepo-com 1">
<path id="Vector" d="M23 2.79199H8C4.8934 2.79199 2.375 5.31039 2.375 8.41699V23.417C2.375 26.5236 4.8934 29.042 8 29.042H23C26.1066 29.042 28.625 26.5236 28.625 23.417V8.41699C28.625 5.31039 26.1066 2.79199 23 2.79199Z" fill="url(#paint0_radial_421_841)"/>
<path id="Vector_2" d="M23 2.79199H8C4.8934 2.79199 2.375 5.31039 2.375 8.41699V23.417C2.375 26.5236 4.8934 29.042 8 29.042H23C26.1066 29.042 28.625 26.5236 28.625 23.417V8.41699C28.625 5.31039 26.1066 2.79199 23 2.79199Z" fill="url(#paint1_radial_421_841)"/>
<path id="Vector_3" d="M23 2.79199H8C4.8934 2.79199 2.375 5.31039 2.375 8.41699V23.417C2.375 26.5236 4.8934 29.042 8 29.042H23C26.1066 29.042 28.625 26.5236 28.625 23.417V8.41699C28.625 5.31039 26.1066 2.79199 23 2.79199Z" fill="url(#paint2_radial_421_841)"/>
<path id="Vector_4" d="M22.0625 10.7607C22.0625 11.5374 21.4329 12.167 20.6562 12.167C19.8796 12.167 19.25 11.5374 19.25 10.7607C19.25 9.98409 19.8796 9.35449 20.6562 9.35449C21.4329 9.35449 22.0625 9.98409 22.0625 10.7607Z" fill="white"/>
<path id="Vector_5" fill-rule="evenodd" clip-rule="evenodd" d="M15.5 20.6045C18.0888 20.6045 20.1875 18.5058 20.1875 15.917C20.1875 13.3282 18.0888 11.2295 15.5 11.2295C12.9112 11.2295 10.8125 13.3282 10.8125 15.917C10.8125 18.5058 12.9112 20.6045 15.5 20.6045ZM15.5 18.7295C17.0533 18.7295 18.3125 17.4703 18.3125 15.917C18.3125 14.3636 17.0533 13.1045 15.5 13.1045C13.9467 13.1045 12.6875 14.3636 12.6875 15.917C12.6875 17.4703 13.9467 18.7295 15.5 18.7295Z" fill="white"/>
<path id="Vector_6" fill-rule="evenodd" clip-rule="evenodd" d="M6.125 15.542C6.125 12.3917 6.125 10.8165 6.73809 9.6133C7.27738 8.55488 8.13789 7.69437 9.19631 7.15508C10.3995 6.54199 11.9747 6.54199 15.125 6.54199H15.875C19.0253 6.54199 20.6005 6.54199 21.8037 7.15508C22.8621 7.69437 23.7226 8.55488 24.2619 9.6133C24.875 10.8165 24.875 12.3917 24.875 15.542V16.292C24.875 19.4423 24.875 21.0175 24.2619 22.2206C23.7226 23.2791 22.8621 24.1396 21.8037 24.6789C20.6005 25.292 19.0253 25.292 15.875 25.292H15.125C11.9747 25.292 10.3995 25.292 9.19631 24.6789C8.13789 24.1396 7.27738 23.2791 6.73809 22.2206C6.125 21.0175 6.125 19.4423 6.125 16.292V15.542ZM15.125 8.41699H15.875C17.4811 8.41699 18.5728 8.41845 19.4168 8.4874C20.2389 8.55456 20.6593 8.6763 20.9525 8.82571C21.6581 9.18525 22.2317 9.75892 22.5912 10.4645C22.7407 10.7577 22.8625 11.1781 22.9296 12.0002C22.9985 12.8441 23 13.9359 23 15.542V16.292C23 17.8981 22.9985 18.9898 22.9296 19.8338C22.8625 20.6559 22.7407 21.0762 22.5912 21.3695C22.2317 22.0751 21.6581 22.6487 20.9525 23.0082C20.6593 23.1577 20.2389 23.2795 19.4168 23.3466C18.5728 23.4155 17.4811 23.417 15.875 23.417H15.125C13.5189 23.417 12.4272 23.4155 11.5832 23.3466C10.7611 23.2795 10.3408 23.1577 10.0475 23.0082C9.34193 22.6487 8.76825 22.0751 8.40872 21.3695C8.2593 21.0762 8.13757 20.6559 8.07041 19.8338C8.00146 18.9898 8 17.8981 8 16.292V15.542C8 13.9359 8.00146 12.8441 8.07041 12.0002C8.13757 11.1781 8.2593 10.7577 8.40872 10.4645C8.76825 9.75892 9.34193 9.18525 10.0475 8.82571C10.3408 8.6763 10.7611 8.55456 11.5832 8.4874C12.4272 8.41845 13.5189 8.41699 15.125 8.41699Z" fill="white"/>
</g>
<defs>
<radialGradient id="paint0_radial_421_841" cx="0" cy="0" r="1" gradientUnits="userSpaceOnUse" gradientTransform="translate(11.75 22.4795) rotate(-55.3758) scale(23.9246)">
<stop stop-color="#B13589"/>
<stop offset="0.79309" stop-color="#C62F94"/>
<stop offset="1" stop-color="#8A3AC8"/>
</radialGradient>
<radialGradient id="paint1_radial_421_841" cx="0" cy="0" r="1" gradientUnits="userSpaceOnUse" gradientTransform="translate(10.8125 29.9795) rotate(-65.1363) scale(21.1821)">
<stop stop-color="#E0E8B7"/>
<stop offset="0.444662" stop-color="#FB8A2E"/>
<stop offset="0.71474" stop-color="#E2425C"/>
<stop offset="1" stop-color="#E2425C" stop-opacity="0"/>
</radialGradient>
<radialGradient id="paint2_radial_421_841" cx="0" cy="0" r="1" gradientUnits="userSpaceOnUse" gradientTransform="translate(0.96875 3.72949) rotate(-8.1301) scale(36.4602 7.79846)">
<stop offset="0.156701" stop-color="#406ADC"/>
<stop offset="0.467799" stop-color="#6A45BE"/>
<stop offset="1" stop-color="#6A45BE" stop-opacity="0"/>
</radialGradient>
</defs>
</svg>
