<svg width="81" height="81" viewBox="0 0 81 81" fill="none" xmlns="http://www.w3.org/2000/svg">
<g id="javascript-svgrepo-com 1" clip-path="url(#clip0_385_2381)">
<g id="Group">
<path id="Vector" d="M0.442383 0.952148H80.4424V80.9521H0.442383V0.952148Z" fill="#F7DF1E"/>
<path id="Vector_2" d="M21.4772 67.8058L27.5993 64.1008C28.7804 66.1949 29.8548 67.9667 32.432 67.9667C34.9023 67.9667 36.4598 67.0003 36.4598 63.2416V37.6797H43.9777V63.3479C43.9777 71.1345 39.4134 74.6788 32.7543 74.6788C26.7402 74.6788 23.2491 71.564 21.4771 67.8052" fill="black"/>
<path id="Vector_3" d="M48.0615 67.0003L54.1829 63.4561C55.7944 66.0877 57.8887 68.0208 61.5938 68.0208C64.7089 68.0208 66.6953 66.4633 66.6953 64.3153C66.6953 61.7376 64.6548 60.8246 61.2178 59.3215L59.3389 58.5154C53.9147 56.2067 50.3166 53.3069 50.3166 47.1849C50.3166 41.5463 54.6126 37.25 61.3255 37.25C66.105 37.25 69.5418 38.9149 72.0118 43.2647L66.1583 47.0236C64.8694 44.7146 63.4736 43.8019 61.3257 43.8019C59.1239 43.8019 57.7276 45.1981 57.7276 47.0236C57.7276 49.2791 59.1239 50.1922 62.3456 51.5885L64.225 52.394C70.6154 55.1329 74.2135 57.925 74.2135 64.2078C74.2135 70.9746 68.8972 74.6796 61.7551 74.6796C54.774 74.6796 50.2629 71.3503 48.0615 67.0003Z" fill="black"/>
</g>
</g>
<defs>
<clipPath id="clip0_385_2381">
<rect width="80" height="80" fill="white" transform="translate(0.442383 0.952148)"/>
</clipPath>
</defs>
</svg>
