<svg width="81" height="81" viewBox="0 0 81 81" fill="none" xmlns="http://www.w3.org/2000/svg">
<g id="laravel-svgrepo-com 1" clip-path="url(#clip0_385_2378)">
<g id="Group">
<path id="Vector" d="M79.1863 19.0187C79.2151 19.1252 79.2301 19.2349 79.2301 19.3452V36.4871C79.2301 36.9349 78.9905 37.3485 78.602 37.5713L64.2145 45.8548V62.2733C64.2145 62.7201 63.9771 63.1325 63.5896 63.3575L33.557 80.6462C33.4883 80.6853 33.4133 80.7103 33.3383 80.7368C33.3102 80.7462 33.2836 80.7634 33.2539 80.7712C33.044 80.8265 32.8233 80.8265 32.6134 80.7712C32.579 80.7618 32.5477 80.7431 32.5149 80.7306C32.4462 80.7056 32.3743 80.6837 32.3087 80.6462L2.28235 63.3575C1.89411 63.1345 1.6543 62.721 1.6543 62.2733V10.8477C1.6543 10.7352 1.66992 10.6259 1.69804 10.5196C1.70742 10.4837 1.72929 10.4509 1.74179 10.415C1.76522 10.3493 1.78709 10.2822 1.82147 10.2212C1.8449 10.1806 1.87927 10.1478 1.90739 10.1103C1.94333 10.0603 1.97614 10.0088 2.01832 9.96501C2.05425 9.92908 2.10112 9.90252 2.14174 9.87127C2.18705 9.83377 2.22767 9.79315 2.27923 9.76347H2.28079L17.2947 1.11912C17.6816 0.896493 18.1577 0.896493 18.5446 1.11912L33.5586 9.76347H33.5617C33.6117 9.79471 33.6539 9.83377 33.6992 9.86971C33.7398 9.90095 33.7851 9.92908 33.821 9.96345C33.8648 10.0088 33.896 10.0603 33.9335 10.1103C33.9601 10.1478 33.996 10.1806 34.0179 10.2212C34.0538 10.2837 34.0741 10.3493 34.0991 10.415C34.1116 10.4509 34.1335 10.4837 34.1429 10.5212C34.1716 10.6277 34.1863 10.7374 34.1866 10.8477V42.9676L46.6977 35.7637V19.3437C46.6977 19.2343 46.7134 19.1234 46.7415 19.0187C46.7524 18.9812 46.7727 18.9484 46.7852 18.9125C46.8102 18.8468 46.8321 18.7797 46.8665 18.7187C46.8899 18.6781 46.9243 18.6453 46.9508 18.6078C46.9883 18.5578 47.0196 18.5062 47.0633 18.4625C47.0993 18.4266 47.1446 18.4 47.1852 18.3688C47.232 18.3313 47.2727 18.2906 47.3227 18.261H47.3242L62.3397 9.61661C62.7265 9.39367 63.2028 9.39367 63.5896 9.61661L78.6036 18.261C78.6567 18.2922 78.6973 18.3313 78.7442 18.3672C78.7832 18.3984 78.8285 18.4266 78.8645 18.4609C78.9082 18.5062 78.9395 18.5578 78.977 18.6078C79.0051 18.6453 79.0395 18.6781 79.0613 18.7187C79.0973 18.7797 79.1176 18.8468 79.1426 18.9125C79.1566 18.9484 79.1769 18.9812 79.1863 19.0187ZM76.7272 35.7637V21.509L71.4731 24.5337L64.2145 28.7129V42.9676L76.7288 35.7637H76.7272ZM61.7133 61.5499V47.2859L54.5734 51.3635L34.1851 62.9997V77.3981L61.7133 61.5499ZM4.15714 13.0115V61.5499L31.6822 77.3966V63.0013L17.3026 54.8631L17.2979 54.86L17.2916 54.8569C17.2432 54.8288 17.2026 54.7882 17.1573 54.7538C17.1182 54.7225 17.0729 54.6975 17.0385 54.6632L17.0354 54.6585C16.9948 54.6194 16.9667 54.571 16.9323 54.5272C16.901 54.4851 16.8635 54.4491 16.8385 54.4054L16.837 54.4007C16.8089 54.3538 16.7917 54.2976 16.7714 54.2445C16.7511 54.1976 16.7245 54.1539 16.712 54.1039V54.1023C16.6964 54.0429 16.6933 53.9804 16.687 53.9195C16.6808 53.8726 16.6683 53.8258 16.6683 53.7789V53.7758V20.2154L9.41125 16.0346L4.15714 13.0131V13.0115ZM17.9212 3.64696L5.41169 10.8477L17.9181 18.0485L30.4261 10.8462L17.9181 3.64696H17.9212ZM24.4268 48.5857L31.6838 44.4081V13.0115L26.4297 16.0362L19.1711 20.2154V51.6119L24.4268 48.5857ZM62.9647 12.1445L50.4567 19.3452L62.9647 26.546L75.4711 19.3437L62.9647 12.1445ZM61.7133 28.7129L54.4547 24.5337L49.2006 21.509V35.7637L56.4576 39.9414L61.7133 42.9676V28.7129ZM32.9321 60.8359L51.2785 50.3621L60.4493 45.1283L47.9507 37.9322L33.5601 46.2172L20.4444 53.768L32.9321 60.8359Z" fill="#FF2D20"/>
</g>
</g>
<defs>
<clipPath id="clip0_385_2378">
<rect width="80" height="80" fill="white" transform="translate(0.442383 0.952148)"/>
</clipPath>
</defs>
</svg>
