<svg width="68" height="70" viewBox="0 0 68 70" fill="none" xmlns="http://www.w3.org/2000/svg">
<path d="M33.8225 19.0431C39.0811 19.0431 43.344 14.7802 43.344 9.52156C43.344 4.26295 39.0811 0 33.8225 0C28.5638 0 24.3009 4.26295 24.3009 9.52156C24.3009 14.7802 28.5638 19.0431 33.8225 19.0431Z" fill="#E7B10A"/>
<path d="M7.75056 29.5673C12.0311 29.5673 15.5011 26.0972 15.5011 21.8167C15.5011 17.5362 12.0311 14.0662 7.75056 14.0662C3.47004 14.0662 0 17.5362 0 21.8167C0 26.0972 3.47004 29.5673 7.75056 29.5673Z" fill="#E7B10A"/>
<path d="M29.0578 66.1906C24.2247 63.277 11.011 54.4041 4.60677 41.0676C1.9911 35.6216 3.93399 33.9455 6.46255 31.0319C8.22422 31.5382 10.1718 31.4262 11.9529 30.5707C13.7355 29.7151 15.0407 28.2653 15.7469 26.5745C16.5705 26.5418 17.3328 26.4959 18.0491 26.4951C17.9433 27.3102 17.8904 28.1985 17.8904 29.1738C17.8904 37.1483 19.747 45.7218 23.4072 54.6561C25.2708 59.203 27.3272 63.1495 29.0624 66.1633C29.0609 66.1711 29.0585 66.182 29.0578 66.1906Z" fill="#E7B10A"/>
<path d="M20.1024 29.1722C20.1024 21.7498 23.1451 20.9269 27.4944 19.0439C29.1768 20.5412 31.3919 21.4527 33.8224 21.4527C36.253 21.4527 38.4673 20.5419 40.1504 19.0439C44.4998 20.9269 47.5424 21.7506 47.5424 29.1722C47.5424 47.3488 37.6273 64.2025 33.8224 70.0001C30.0183 64.2025 20.1024 47.3496 20.1024 29.1722Z" fill="#E7B10A"/>
<path d="M63.0373 41.0675C56.6339 54.4048 43.4202 63.2769 38.5863 66.1905C38.5856 66.1803 38.584 66.171 38.5817 66.1609C40.3153 63.147 42.3733 59.2006 44.2369 54.6537C47.8979 45.7193 49.7537 37.1459 49.7537 29.1713C49.7537 28.196 49.7 27.3078 49.595 26.4927C50.3113 26.4927 51.0728 26.5393 51.8972 26.572C52.6034 28.2637 53.9086 29.7127 55.6912 30.5682C57.4739 31.4238 59.4199 31.5358 61.1816 31.0295C63.7101 33.9453 65.653 35.6222 63.0373 41.0675Z" fill="#E7B10A"/>
<path d="M59.8944 29.5673C64.1749 29.5673 67.6449 26.0972 67.6449 21.8167C67.6449 17.5362 64.1749 14.0662 59.8944 14.0662C55.6138 14.0662 52.1438 17.5362 52.1438 21.8167C52.1438 26.0972 55.6138 29.5673 59.8944 29.5673Z" fill="#E7B10A"/>
</svg>
