<svg width="43" height="38" viewBox="0 0 43 38" fill="none" xmlns="http://www.w3.org/2000/svg">
<path d="M11.25 7V7.75C11.4977 7.75 11.7295 7.62768 11.8692 7.42314L11.25 7ZM14.1328 2.7812L13.5136 2.35806L13.5136 2.35806L14.1328 2.7812ZM28.8672 2.7812L28.2479 3.20434L28.2479 3.20434L28.8672 2.7812ZM31.75 7L31.1308 7.42314C31.2705 7.62768 31.5023 7.75 31.75 7.75V7ZM26.9 22C26.9 24.8821 24.4999 27.25 21.5 27.25V28.75C25.2932 28.75 28.4 25.7453 28.4 22H26.9ZM21.5 27.25C18.5001 27.25 16.1 24.8821 16.1 22H14.6C14.6 25.7453 17.7068 28.75 21.5 28.75V27.25ZM16.1 22C16.1 19.1179 18.5001 16.75 21.5 16.75V15.25C17.7068 15.25 14.6 18.2547 14.6 22H16.1ZM21.5 16.75C24.4999 16.75 26.9 19.1179 26.9 22H28.4C28.4 18.2547 25.2932 15.25 21.5 15.25V16.75ZM11.8692 7.42314L14.7521 3.20434L13.5136 2.35806L10.6308 6.57686L11.8692 7.42314ZM17.5443 1.75H25.4557V0.25H17.5443V1.75ZM28.2479 3.20434L31.1308 7.42314L32.3692 6.57686L29.4864 2.35806L28.2479 3.20434ZM25.4557 1.75C26.584 1.75 27.6301 2.30024 28.2479 3.20434L29.4864 2.35806C28.5834 1.03657 27.0692 0.25 25.4557 0.25V1.75ZM14.7521 3.20434C15.3699 2.30024 16.416 1.75 17.5443 1.75V0.25C15.9308 0.25 14.4166 1.03657 13.5136 2.35806L14.7521 3.20434ZM41.25 15V29H42.75V15H41.25ZM33.8 36.25H9.2V37.75H33.8V36.25ZM1.75 29V15H0.25V29H1.75ZM9.2 36.25C5.06791 36.25 1.75 32.9867 1.75 29H0.25C0.25 33.8498 4.27462 37.75 9.2 37.75V36.25ZM41.25 29C41.25 32.9867 37.9321 36.25 33.8 36.25V37.75C38.7254 37.75 42.75 33.8498 42.75 29H41.25ZM33.8 7.75C37.9321 7.75 41.25 11.0133 41.25 15H42.75C42.75 10.1502 38.7254 6.25 33.8 6.25V7.75ZM9.2 6.25C4.27462 6.25 0.25 10.1502 0.25 15H1.75C1.75 11.0133 5.06791 7.75 9.2 7.75V6.25ZM9.2 7.75H11.25V6.25H9.2V7.75ZM33.8 6.25H31.75V7.75H33.8V6.25Z" fill="#000E08"/>
</svg>
