<svg width="41" height="41" viewBox="0 0 41 41" fill="none" xmlns="http://www.w3.org/2000/svg">
<path d="M35.875 32.4583V29.6465C35.875 28.2494 35.0244 26.9931 33.7273 26.4742L30.2523 25.0842C28.6024 24.4243 26.7221 25.1392 25.9274 26.7286L25.625 27.3333C25.625 27.3333 21.3542 26.4792 17.9375 23.0625C14.5208 19.6458 13.6667 15.375 13.6667 15.375L14.2714 15.0726C15.8608 14.2779 16.5757 12.3976 15.9158 10.7477L14.5258 7.27275C14.0069 5.97558 12.7506 5.125 11.3535 5.125H8.54167C6.65469 5.125 5.125 6.65469 5.125 8.54167C5.125 23.6374 17.3626 35.875 32.4583 35.875C34.3453 35.875 35.875 34.3453 35.875 32.4583Z" stroke="#000E08" stroke-width="1.5" stroke-linejoin="round"/>
</svg>
