<svg width="33" height="33" viewBox="0 0 33 33" fill="none" xmlns="http://www.w3.org/2000/svg">
<path d="M9.625 24.75L9.625 13.75C9.625 10.7124 12.0874 8.25 15.125 8.25L23.375 8.25M9.625 24.75C9.625 27.7876 12.0874 30.25 15.125 30.25H18.3468C19.8055 30.25 21.2045 29.6705 22.2359 28.6391L27.2641 23.6109C28.2955 22.5795 28.875 21.1805 28.875 19.7218V13.75C28.875 10.7124 26.4126 8.25 23.375 8.25M9.625 24.75C6.58743 24.75 4.125 22.2876 4.125 19.25L4.125 8.25C4.125 5.21243 6.58743 2.75 9.625 2.75L17.875 2.75C20.9126 2.75 23.375 5.21243 23.375 8.25M20.625 30.25V27.5C20.625 24.4624 23.0874 22 26.125 22H28.875" stroke="#797C7B" stroke-width="1.5" stroke-linejoin="round"/>
</svg>
